<mxfile host="app.diagrams.net" modified="2023-10-18T00:52:40.210Z" agent="Mozilla/5.0 (Windows NT 10.0; Win64; x64) AppleWebKit/537.36 (KHTML, like Gecko) Chrome/118.0.0.0 Safari/537.36" version="22.0.4" etag="U01aYQFLuhgGug8YOd2i" type="github">
  <diagram name="Halaman-1" id="vB-tjZQgOmy93SkMweyj">
    <mxGraphModel>
      <root>
        <mxCell id="0" />
        <mxCell id="1" parent="0" />
      </root>
    </mxGraphModel>
  </diagram>
</mxfile>
